<svg xmlns="http://www.w3.org/2000/svg" shape-rendering="geometricPrecision" text-rendering="geometricPrecision" image-rendering="optimizeQuality" fill-rule="evenodd" clip-rule="evenodd" viewBox="0 0 463 511.596"><path fill="#fff" fill-rule="nonzero" d="M154.54 37.594a.746.746 0 11.434-1.428c1.294.393 2.904 1.252 4.426 2.528a15.44 15.44 0 013.417 4.03.748.748 0 01-1.293.749 13.94 13.94 0 00-3.084-3.631c-1.367-1.146-2.781-1.908-3.9-2.248zm8.073 8.332a.75.75 0 011.428-.451l.124.415.111.427a.747.747 0 11-1.451.351l-.1-.374-.112-.368z"/><path d="M324.976 29.358c45.222 19.571 79.531 46.793 102.925 81.661C451.3 145.896 463 186.504 463 232.845c0 40.503-7.877 77.732-23.626 111.703-15.744 33.971-38.357 63.444-67.826 88.419-29.473 24.971-64.678 44.317-105.629 58.045-40.941 13.72-86.39 20.584-136.331 20.584-31.503 0-55.794-2.704-72.893-8.098-17.103-5.404-28.909-13.05-35.431-22.956-6.532-9.896-10.017-21.37-10.47-34.419-.449-21.148 6.647-38.921 21.263-53.321 13.225-13.021 31.891-18.651 49.581-22.534-1.631-11.307-2.986-23.603-4.021-36.86-1.789-22.946-2.478-46.789-2.025-71.534.448-24.753 1.697-48.393 3.707-70.876 1.188-13.285 4.087-26.483 5.279-39.241-27.837-.776-48.629-6.143-62.311-16.1C7.419 124.863 0 109.785 0 90.435c0-27.897 12.934-49.946 38.806-66.144C64.678 8.099 104.617 0 158.608 0c65.695 0 121.146 9.781 166.368 29.358zM278.83 81.689c-4.826-1.465-7.553-6.569-6.088-11.394 1.465-4.826 6.569-7.553 11.394-6.088 15.846 4.812 35.547 15.323 54.176 30.948 15.421 12.933 30.282 29.482 41.834 49.322 2.528 4.373 1.04 9.975-3.333 12.503-4.373 2.529-9.975 1.041-12.504-3.332-10.377-17.825-23.792-32.746-37.747-44.45-16.724-14.03-34.036-23.349-47.732-27.509zm98.815 101.977c-1.521-4.826 1.156-9.98 5.982-11.5 4.825-1.521 9.98 1.155 11.501 5.981l1.511 5.085 1.364 5.223c1.183 4.905-1.831 9.851-6.735 11.034-4.905 1.183-9.851-1.83-11.034-6.735l-1.225-4.576-1.364-4.512zM234.874 336.782c12.153 0 23.178-3.48 33.075-10.46 9.891-6.971 17.773-16.873 23.62-29.695 5.843-12.823 8.77-28.013 8.77-45.555 0-14.399-1.91-27.453-5.737-39.144-3.823-11.704-9.111-21.827-15.86-30.374-6.749-8.552-14.505-15.185-23.284-19.909-8.773-4.725-18.106-7.091-28.012-7.091-6.291 0-11.357 2.255-15.18 6.749-3.828 4.502-6.416 12.716-7.766 24.638-1.35 11.921-2.02 28.682-2.02 50.279 0 35.098 2.251 60.638 6.744 76.604 4.502 15.975 13.05 23.958 25.65 23.958z"/></svg>